<svg id="icon" viewBox="-14 0 512 512.10682" width="400" height="400" xmlns="http://www.w3.org/2000/svg">
    <path d="m103.039062 496.582031c-1.921874 0-3.839843-.730469-5.304687-2.195312-2.929687-2.929688-2.929687-7.679688 0-10.605469l9.324219-9.328125c2.929687-2.925781 7.679687-2.925781 10.605468 0 2.929688 2.929687 2.929688 7.679687 0 10.609375l-9.324218 9.324219c-1.464844 1.464843-3.382813 2.195312-5.300782 2.195312zm0 0" fill="#ff4e61" />
    <path d="m204.226562 138.972656c-1.917968 0-3.839843-.734375-5.304687-2.199218-2.925781-2.929688-2.925781-7.675782 0-10.605469l9.328125-9.324219c2.925781-2.929688 7.675781-2.929688 10.605469 0 2.925781 2.929688 2.925781 7.675781 0 10.605469l-9.328125 9.324219c-1.460938 1.464843-3.382813 2.199218-5.300782 2.199218zm0 0" fill="#ff4e61" />
    <path d="m419.488281 106.597656c-1.917969 0-3.839843-.730468-5.304687-2.195312-2.925782-2.929688-2.925782-7.679688.003906-10.605469l9.324219-9.328125c2.929687-2.929688 7.675781-2.929688 10.605469 0 2.929687 2.929688 2.929687 7.679688 0 10.605469l-9.324219 9.328125c-1.464844 1.460937-3.386719 2.195312-5.304688 2.195312zm0 0" fill="#5c73bc" />
    <path d="m419.488281 464.5c-1.917969 0-3.839843-.730469-5.304687-2.195312-2.925782-2.929688-2.925782-7.679688 0-10.605469l9.328125-9.328125c2.929687-2.925782 7.675781-2.925782 10.605469 0 2.929687 2.929687 2.929687 7.679687 0 10.609375l-9.324219 9.324219c-1.464844 1.464843-3.386719 2.195312-5.304688 2.195312zm0 0" fill="#fa0" />
    <path d="m63.617188 118.929688c-1.917969 0-3.839844-.730469-5.300782-2.195313-2.929687-2.929687-2.929687-7.679687 0-10.605469l9.324219-9.328125c2.929687-2.929687 7.675781-2.929687 10.605469 0 2.929687 2.929688 2.929687 7.679688 0 10.605469l-9.324219 9.328125c-1.464844 1.460937-3.382813 2.195313-5.304687 2.195313zm0 0" fill="#fa0" />
    <path d="m12.113281 282.339844c-1.917969 0-3.839843-.730469-5.304687-2.195313-2.925782-2.929687-2.925782-7.675781 0-10.605469l9.328125-9.324218c2.925781-2.929688 7.675781-2.933594 10.605469 0 2.929687 2.925781 2.929687 7.675781 0 10.605468l-9.324219 9.324219c-1.464844 1.464844-3.386719 2.195313-5.304688 2.195313zm0 0" fill="#2dc471" />
    <path d="m219.082031 281.792969-24.347656 12.800781c-6.3125 3.316406-13.695313-2.042969-12.488281-9.074219l4.648437-27.113281c.480469-2.789062-.445312-5.640625-2.472656-7.617188l-19.699219-19.199218c-5.109375-4.980469-2.289062-13.65625 4.769532-14.683594l27.222656-3.953125c2.800781-.40625 5.226562-2.167969 6.480468-4.707031l12.171876-24.667969c3.15625-6.394531 12.28125-6.394531 15.4375 0l12.171874 24.667969c1.253907 2.539062 3.675782 4.300781 6.480469 4.707031l27.222657 3.953125c7.058593 1.027344 9.878906 9.703125 4.769531 14.683594l-19.699219 19.199218c-2.027344 1.976563-2.953125 4.824219-2.472656 7.617188l4.648437 27.113281c1.207031 7.03125-6.171875 12.390625-12.488281 9.074219l-24.347656-12.800781c-2.503906-1.320313-5.5-1.320313-8.007813 0zm0 0" fill="#ffd02f" />
    <g fill="none" stroke-linecap="round" stroke-miterlimit="10" stroke-width="15" transform="translate(-28.428)"></g>
    <path d="m407.65625 359.394531-15.75 11.425781c-4.085938 2.964844-9.796875-.042968-9.660156-5.085937l.507812-19.453125c.054688-2.003906-.882812-3.90625-2.503906-5.085938l-15.738281-11.445312c-4.078125-2.96875-2.984375-9.328125 1.855469-10.765625l18.65625-5.523437c1.921874-.570313 3.441406-2.050782 4.0625-3.953126l6.023437-18.503906c1.566406-4.800781 7.953125-5.722656 10.8125-1.566406l11.019531 16.039062c1.136719 1.652344 3.011719 2.640626 5.015625 2.640626l19.460938.011718c5.046875.003906 7.898437 5.792969 4.828125 9.796875l-11.847656 15.4375c-1.222657 1.589844-1.582032 3.679688-.964844 5.585938l6.003906 18.511719c1.558594 4.800781-3.066406 9.300781-7.824219 7.617187l-18.34375-6.496094c-1.890625-.667969-3.988281-.363281-5.613281.8125zm0 0" fill="#ffd02f" />
    <path d="m103.984375 398.863281 11.9375 15.367188c3.097656 3.984375 9.417969 2.691406 10.699219-2.191407l4.9375-18.824218c.507812-1.9375 1.9375-3.5 3.820312-4.183594l18.304688-6.601562c4.75-1.714844 5.472656-8.128907 1.222656-10.855469l-16.375-10.511719c-1.6875-1.082031-2.734375-2.925781-2.796875-4.929688l-.625-19.449218c-.164063-5.042969-6.039063-7.710938-9.945313-4.515625l-15.058593 12.328125c-1.550781 1.269531-3.625 1.695312-5.550781 1.136718l-18.691407-5.417968c-4.847656-1.402344-9.203125 3.359375-7.367187 8.0625l7.070312 18.128906c.726563 1.867188.492188 3.972656-.632812 5.632812l-10.929688 16.101563c-2.832031 4.175781.351563 9.789063 5.390625 9.5l19.429688-1.121094c2-.117187 3.929687.757813 5.160156 2.34375zm0 0" fill="#ffd02f" />
    <path d="m272.484375 62.558594c0 11.113281-9.007813 20.125-20.125 20.125-11.113281 0-20.125-9.011719-20.125-20.125 0-11.117188 9.011719-20.128906 20.125-20.128906 11.117187 0 20.125 9.011718 20.125 20.128906zm0 0" fill="#ffd02f" />
    <path d="m378.167969 447.574219c0 11.117187-9.011719 20.125-20.128907 20.125-11.113281 0-20.125-9.007813-20.125-20.125 0-11.113281 9.011719-20.125 20.125-20.125 11.117188 0 20.128907 9.011719 20.128907 20.125zm0 0" fill="#5c73bc" />
    <path d="m44.398438 451.558594c0 8.914062-7.226563 16.140625-16.144532 16.140625-8.914062 0-16.140625-7.226563-16.140625-16.140625 0-8.914063 7.226563-16.140625 16.140625-16.140625 8.917969 0 16.144532 7.226562 16.144532 16.140625zm0 0" fill="#62d38f" />
    <path d="m89.085938 291.503906c0 8.914063-7.226563 16.140625-16.144532 16.140625-8.914062 0-16.140625-7.226562-16.140625-16.140625 0-8.914062 7.226563-16.140625 16.140625-16.140625 8.917969 0 16.144532 7.226563 16.144532 16.140625zm0 0" fill="#5c73bc" />
    <path d="m213.550781 23.640625c0 8.917969-7.226562 16.144531-16.140625 16.144531-8.914062 0-16.144531-7.226562-16.144531-16.144531 0-8.914063 7.230469-16.140625 16.144531-16.140625 8.914063 0 16.140625 7.226562 16.140625 16.140625zm0 0" fill="#ff4e61" />
    <path d="m370.199219 158.078125c0 8.914063-7.226563 16.140625-16.144531 16.140625-8.914063 0-16.140626-7.226562-16.140626-16.140625 0-8.917969 7.226563-16.144531 16.140626-16.144531 8.917968 0 16.144531 7.226562 16.144531 16.144531zm0 0" fill="#ff4e61" />
    <path d="m141.628906 39.972656c-1.917968 0-3.839844-.730468-5.304687-2.195312-2.929688-2.929688-2.929688-7.679688 0-10.605469l9.324219-9.328125c2.929687-2.929688 7.679687-2.929688 10.609374 0 2.925782 2.929688 2.925782 7.679688 0 10.605469l-9.328124 9.328125c-1.460938 1.460937-3.382813 2.195312-5.300782 2.195312zm0 0" fill="#ff4e61" />

    <path d="m223.085938 512c-4.140626 0-7.5-3.359375-7.5-7.5v-113.851562c0-4.140626 3.359374-7.5 7.5-7.5 4.144531 0 7.5 3.359374 7.5 7.5v113.851562c0 4.140625-3.355469 7.5-7.5 7.5zm0 0" />
    <path d="m223.144531 359.75c-.011719 0-.019531 0-.03125 0h-.113281c-4.144531-.015625-7.488281-3.390625-7.46875-7.53125.015625-4.128906 3.371094-7.46875 7.5-7.46875h.03125.113281c4.144531.019531 7.488281 3.390625 7.46875 7.53125-.015625 4.132812-3.371093 7.46875-7.5 7.46875zm0 0" />
    <path d="m223.144531 334.710938h-.117187c-4.140625 0-7.5-3.359376-7.5-7.5 0-4.144532 3.359375-7.5 7.5-7.5h.117187c4.140625 0 7.5 3.355468 7.5 7.5 0 4.140624-3.359375 7.5-7.5 7.5zm0 0" />
    <path d="m88.132812 235.132812c-1.917968 0-3.835937-.734374-5.300781-2.199218l-80.503906-80.503906c-2.929687-2.925782-2.929687-7.675782 0-10.605469 2.929687-2.929688 7.675781-2.929688 10.605469 0l80.503906 80.503906c2.929688 2.929687 2.929688 7.679687 0 10.605469-1.464844 1.464844-3.382812 2.199218-5.304688 2.199218zm0 0" />
    <path d="m115.246094 262.324219c-1.929688 0-3.855469-.738281-5.320313-2.210938-2.917969-2.9375-2.90625-7.6875.03125-10.605469l.082031-.082031c2.9375-2.917969 7.6875-2.90625 10.605469.03125 2.921875 2.9375 2.90625 7.6875-.03125 10.605469l-.082031.082031c-1.460938 1.453125-3.375 2.179688-5.285156 2.179688zm0 0" />
    <path d="m132.949219 280.03125c-1.925781 0-3.851563-.738281-5.316407-2.210938-2.921874-2.9375-2.90625-7.6875.03125-10.605468l.082032-.082032c2.9375-2.921874 7.6875-2.90625 10.605468.03125 2.921876 2.9375 2.90625 7.6875-.03125 10.605469l-.082031.082031c-1.460937 1.453126-3.375 2.179688-5.289062 2.179688zm0 0" />
    <path d="m358.039062 232.273438c-1.917968 0-3.839843-.734376-5.304687-2.199219-2.925781-2.929688-2.925781-7.675781 0-10.605469l80.503906-80.503906c2.933594-2.929688 7.679688-2.929688 10.609375 0 2.929688 2.929687 2.929688 7.679687 0 10.605468l-80.503906 80.503907c-1.464844 1.464843-3.382812 2.199219-5.304688 2.199219zm0 0" />
    <path d="m330.929688 259.464844c-1.90625 0-3.808594-.722656-5.273438-2.164063l-.082031-.082031c-2.945313-2.910156-2.972657-7.660156-.0625-10.605469 2.910156-2.949219 7.660156-2.976562 10.609375-.0625l.078125.082031c2.949219 2.910157 2.976562 7.65625.066406 10.605469-1.46875 1.484375-3.402344 2.226563-5.335937 2.226563zm0 0" />
    <path d="m313.222656 277.171875c-1.917968 0-3.839844-.730469-5.304687-2.195313l-.082031-.082031c-2.929688-2.929687-2.929688-7.679687 0-10.605469 2.929687-2.929687 7.679687-2.929687 10.609374 0l.078126.078126c2.929687 2.929687 2.929687 7.679687 0 10.609374-1.460938 1.460938-3.382813 2.195313-5.300782 2.195313zm0 0" />
    <path d="m304.679688 122.652344c-1.292969 0-2.601563-.335938-3.792969-1.039063-3.570313-2.097656-4.765625-6.691406-2.664063-10.265625l57.695313-98.144531c2.101562-3.570313 6.699219-4.765625 10.269531-2.667969 3.570312 2.101563 4.761719 6.695313 2.664062 10.269532l-57.699218 98.144531c-1.398438 2.378906-3.902344 3.703125-6.472656 3.703125zm0 0" />
    <path d="m285.269531 155.78125c-1.285156 0-2.585937-.328125-3.773437-1.019531l-.097656-.058594c-3.578126-2.089844-4.789063-6.679687-2.699219-10.257813 2.085937-3.578124 6.679687-4.785156 10.257812-2.699218l.097657.058594c3.578124 2.085937 4.789062 6.679687 2.699218 10.253906-1.394531 2.390625-3.90625 3.722656-6.484375 3.722656zm0 0" />
    <path d="m272.578125 177.371094c-1.28125 0-2.582031-.332032-3.773437-1.023438l-.097657-.058594c-3.578125-2.085937-4.785156-6.679687-2.699219-10.257812 2.085938-3.578125 6.679688-4.785156 10.257813-2.699219l.097656.058594c3.578125 2.085937 4.789063 6.679687 2.699219 10.257813-1.394531 2.386718-3.90625 3.722656-6.484375 3.722656zm0 0" />
    <path d="m141.636719 122.652344c-2.574219 0-5.078125-1.324219-6.472657-3.703125l-57.699218-98.144531c-2.101563-3.570313-.90625-8.167969 2.664062-10.265626 3.570313-2.101562 8.167969-.910156 10.265625 2.664063l57.699219 98.148437c2.101562 3.570313.90625 8.164063-2.664062 10.265626-1.195313.699218-2.503907 1.035156-3.792969 1.035156zm0 0" />
    <path d="m161.046875 155.78125c-2.574219 0-5.082031-1.324219-6.476563-3.707031-2.097656-3.570313-.898437-8.167969 2.675782-10.261719l.097656-.058594c3.574219-2.09375 8.171875-.898437 10.265625 2.675782 2.09375 3.574218.894531 8.167968-2.679687 10.265624l-.097657.058594c-1.191406.695313-2.496093 1.027344-3.785156 1.027344zm0 0" />
    <path d="m173.734375 177.371094c-2.574219 0-5.078125-1.328125-6.476563-3.710938-2.09375-3.570312-.894531-8.167968 2.679688-10.261718l.097656-.058594c3.574219-2.09375 8.167969-.894532 10.261719 2.679687 2.097656 3.570313.898437 8.167969-2.675781 10.261719l-.097656.058594c-1.191407.699218-2.5 1.03125-3.789063 1.03125zm0 0" />

    <path d="m264.960938 512c-4.144532 0-7.5-3.359375-7.5-7.5 0-56.484375 23.207031-94.664062 42.671874-116.742188 21.140626-23.980468 42.230469-34.511718 43.117188-34.945312 3.714844-1.828125 8.210938-.300781 10.039062 3.417969 1.828126 3.710937.300782 8.199219-3.40625 10.035156-.195312.09375-19.722656 9.9375-38.917968 31.890625-25.550782 29.214844-38.503906 64.996094-38.503906 106.34375 0 4.140625-3.359376 7.5-7.5 7.5zm0 0" />

    <path d="m181.265625 512c-4.140625 0-7.5-3.359375-7.5-7.5 0-29.53125-6.757813-56.554688-20.09375-80.3125-2.027344-3.613281-.742187-8.183594 2.871094-10.210938 3.609375-2.03125 8.183593-.746093 10.210937 2.867188 14.605469 26.027344 22.011719 55.519531 22.011719 87.65625 0 4.140625-3.355469 7.5-7.5 7.5zm0 0" />

    <!-- donuts -->
    <path d="m288.769531 351.84375c-10.644531 0-19.304687-8.660156-19.304687-19.304688 0-10.640624 8.660156-19.300781 19.304687-19.300781s19.300781 8.660157 19.300781 19.300781c0 10.644532-8.660156 19.304688-19.300781 19.304688zm0-23.605469c-2.371093 0-4.304687 1.929688-4.304687 4.300781 0 2.371094 1.933594 4.304688 4.304687 4.304688 2.371094 0 4.300781-1.933594 4.300781-4.304688 0-2.371093-1.929687-4.300781-4.300781-4.300781zm0 0" />
    <path d="m83.929688 176.023438c-10.640626 0-19.300782-8.660157-19.300782-19.300782 0-10.644531 8.660156-19.304687 19.300782-19.304687 10.644531 0 19.300781 8.660156 19.300781 19.304687 0 10.640625-8.65625 19.300782-19.300781 19.300782zm0-23.605469c-2.371094 0-4.300782 1.929687-4.300782 4.304687 0 2.371094 1.929688 4.300782 4.300782 4.300782 2.371093 0 4.300781-1.929688 4.300781-4.300782 0-2.375-1.929688-4.304687-4.300781-4.304687zm0 0" />
    <path d="m362.386719 120.878906c-10.644531 0-19.304688-8.660156-19.304688-19.304687 0-10.640625 8.660157-19.300781 19.304688-19.300781 10.640625 0 19.300781 8.660156 19.300781 19.300781 0 10.644531-8.660156 19.304687-19.300781 19.304687zm0-23.605468c-2.375 0-4.304688 1.929687-4.304688 4.300781 0 2.371093 1.929688 4.304687 4.304688 4.304687 2.371093 0 4.300781-1.933594 4.300781-4.304687 0-2.371094-1.929688-4.300781-4.300781-4.300781zm0 0" />
</svg>