<svg width="23" height="21" viewBox="0 0 23 21" fill="none" xmlns="http://www.w3.org/2000/svg">
<path d="M12.299 8.39531C12.585 8.26148 12.8838 8.23031 13.1634 8.28073C13.7583 8.38981 14.2606 8.8729 14.333 9.53656C14.1268 9.3074 13.861 9.16531 13.5768 9.11306C13.288 9.06173 12.98 9.10115 12.6931 9.23498C12.123 9.50265 11.7884 10.0719 11.8782 10.687C11.1962 9.9839 11.408 8.81331 12.299 8.39531ZM13.1835 16.8717C13.772 17.1971 15.6118 18.0891 17.5524 20.1745L22.2567 17.9681C21.4537 16.2576 21.945 15.252 21.1494 13.5534C20.6049 12.3929 20.1896 12.2994 19.4013 12.3012L19.6818 12.8989C19.8514 13.2591 19.3041 13.5131 19.1373 13.1537L18.888 12.6193C18.6835 12.1857 18.1079 12.3278 17.5991 12.3507L17.9401 13.0767C18.1088 13.4361 17.5661 13.6918 17.3956 13.3306L17.1005 12.7018C16.8924 12.2572 16.2947 12.4195 15.7814 12.4534L16.1416 13.2225C16.3112 13.5836 15.7658 13.8357 15.599 13.4773L14.135 10.3652C13.6822 9.39723 12.1798 10.0609 12.65 11.061L14.8051 15.6626C14.5145 15.4912 13.9875 15.285 13.63 15.2199C12.5245 15.0201 11.88 16.1521 13.1835 16.8717ZM6.67338 4.59115H8.50671V2.75781H6.67338V4.59115ZM15.84 7.34115H19.5067V5.50781H15.84V7.34115ZM17.6734 4.59115H19.5067V2.75781H17.6734V4.59115ZM7.59005 7.34115H9.42338V5.50781H7.59005V7.34115ZM3.00671 2.75781V4.59115H5.75671V2.75781H3.00671ZM9.69563 9.10298C9.75063 8.80415 9.85971 8.52456 9.99171 8.25781H6.67338V10.0911H9.68555C9.6443 9.76481 9.63513 9.4339 9.69563 9.10298ZM3.00671 7.34115H6.67338V5.50781H3.00671V7.34115ZM9.42338 4.59115H11.2567V2.75781H9.42338V4.59115ZM14.9234 4.59115H16.7567V2.75781H14.9234V4.59115ZM10.5619 11.963C10.2915 11.6843 10.098 11.3543 9.94405 11.0078H2.09005V1.84115H20.4234V10.577C21.1796 10.7511 21.7663 11.1517 22.2567 11.8291V0.0078125H0.256714V12.8411H11.4125L10.5619 11.963ZM10.34 7.34115H12.1734V5.50781H10.34V7.34115ZM13.09 7.34115H14.9234V5.50781H13.09V7.34115ZM12.1734 4.59115H14.0067V2.75781H12.1734V4.59115Z" fill="white"/>
</svg>
