<svg width="25" height="37" viewBox="0 0 25 37" fill="none" xmlns="http://www.w3.org/2000/svg">
<path d="M12.8971 3.68066C14.5516 3.68066 15.8971 5.02616 15.8971 6.68066V17.1807C15.8971 18.8352 14.5516 20.1807 12.8971 20.1807C11.2426 20.1807 9.89709 18.8352 9.89709 17.1807V6.68066C9.89709 5.02616 11.2426 3.68066 12.8971 3.68066ZM12.8971 0.680664C9.58359 0.680664 6.89709 3.36716 6.89709 6.68066V17.1807C6.89709 20.4942 9.58359 23.1807 12.8971 23.1807C16.2106 23.1807 18.8971 20.4942 18.8971 17.1807V6.68066C18.8971 3.36716 16.2106 0.680664 12.8971 0.680664ZM24.8971 14.1807V17.1807C24.8971 23.8077 19.5241 29.1807 12.8971 29.1807C6.27009 29.1807 0.897095 23.8077 0.897095 17.1807V14.1807H3.89709V17.1807C3.89709 22.1442 7.93359 26.1807 12.8971 26.1807C17.8606 26.1807 21.8971 22.1442 21.8971 17.1807V14.1807H24.8971ZM14.3971 33.6807V30.6807H11.3971V33.6807H5.39709V36.6807H20.3971V33.6807H14.3971Z" fill="white"/>
</svg>
